# AST/ASF file generated using VICON BodyLanguage
# -----------------------------------------------
:version 1.10
:name VICON
:units
  mass 1.0
  length 0.45
  angle deg
:documentation
   .ast/.asf automatically generated from VICON data using
   VICON BodyBuilder and BodyLanguage model FoxedUp or BRILLIANT.MOD
:root
   order TX TY TZ RX RY RZ
   axis XYZ
   position 0 0 0  
   orientation 0 0 0 
:bonedata
  begin
     id 1 
     name lhipjoint
     direction 0.588788 -0.725889 0.355548 
     length 2.37778 
     axis 0 0 0  XYZ
  end
  begin
     id 2 
     name lfemur
     direction 0.34202 -0.939693 0  
     length 6.86393  
     axis 0 0 20  XYZ
    dof rx ry rz
    limits (-160.0 20.0)
           (-70.0 70.0)
           (-60.0 70.0)
  end
  begin
     id 3 
     name ltibia
     direction 0.34202 -0.939693 0   
     length 7.32851   
     axis 0 0 20   XYZ
    dof rx
    limits (-10.0 170.0)
  end
  begin
     id 4 
     name lfoot
     direction 0.0626533 -0.172138 0.983078   
     length 1.98929   
     axis -90 7.62852e-016 20   XYZ
    dof rx rz
    limits (-45.0 90.0)
           (-70.0 20.0)
  end
  begin
     id 5 
     name ltoes
     direction 1.53647e-011 -4.21734e-011 1   
     length 1.00479   
     axis -90 7.62852e-016 20   XYZ
    dof rx
    limits (-90.0 20.0)
  end
  begin
     id 6 
     name rhipjoint
     direction -0.59141 -0.724168 0.354705   
     length 2.38343  
     axis 0 0 0  XYZ 
  end
  begin
     id 7 
     name rfemur
     direction -0.34202 -0.939693 0   
     length 6.95589   
     axis 0 0 -20   XYZ
    dof rx ry rz
    limits (-160.0 20.0)
           (-70.0 70.0)
           (-70.0 60.0)
  end
  begin
     id 8 
     name rtibia
     direction -0.34202 -0.939693 0   
     length 7.32327   
     axis 0 0 -20   XYZ
    dof rx
    limits (-10.0 170.0)
 end
 begin
     id 9 
     name rfoot
     direction -0.0660461 -0.18146 0.981178   
     length 1.85272  
     axis -90 -7.62852e-016 -20   XYZ
    dof rx rz
    limits (-45.0 90.0)
           (-20.0 70.0)
  end
  begin
     id 10 
     name rtoes
     direction -1.53586e-011 -4.21988e-011 1   
     length 0.93746   
     axis -90 -7.62852e-016 -20   XYZ
    dof rx
    limits (-90.0 20.0)
  end
  begin
     id 11 
     name lowerback
     direction -0.0107982 0.991059 0.13299   
     length 1.98691   
     axis 0 0 0   XYZ
    dof rx ry rz
    limits (-20.0 45.0)
           (-30.0 30.0)
           (-30.0 30.0)
  end
  begin
     id 12 
     name upperback
     direction 0.0076296 0.999916 0.0104576   
     length 1.99501   
     axis 0 0 0   XYZ
    dof rx ry rz
    limits (-20.0 45.0)
           (-30.0 30.0)
           (-30.0 30.0)
  end
  begin
     id 13 
     name thorax
     direction 0.01176 0.998615 -0.0512909   
     length 2.03144   
     axis 0 0 0   XYZ
    dof rx ry rz
    limits (-20.0 45.0)
           (-30.0 30.0)
           (-30.0 30.0)
  end
  begin
     id 14 
     name lowerneck
     direction -0.0171909 0.999644 0.0204011   
     length 1.71818   
     axis 0 0 0   XYZ
    dof rx ry rz
    limits (-20.0 45.0)
           (-30.0 30.0)
           (-30.0 30.0)
  end
  begin
     id 15 
     name upperneck
     direction 0.0250902 0.997482 -0.0663316   
     length 1.66199   
     axis 0 0 0   XYZ
    dof rx ry rz
    limits (-20.0 45.0)
           (-30.0 30.0)
           (-30.0 30.0)
  end
  begin
     id 16
     name head
     direction 0.00881535 0.99956 -0.0283365  
     length 1.81545  
     axis 0 0 0   XYZ
    dof rx ry rz
    limits (-20.0 45.0)
           (-30.0 30.0)
           (-30.0 30.0)
  end
  begin
     id 17 
     name lclavicle
     direction 0.840411 0.486876 -0.238035  
     length 3.30409  
     axis 0 0 0   XYZ
    dof ry rz
    limits (-20.0 10.0)
           (0.0 20.0)
  end
  begin
     id 18 
     name lhumerus
     direction 1 -4.48977e-011 -5.16239e-027   
     length 4.62672   
     axis 180 -30 -90   XYZ
    dof rx ry rz
    limits (-60.0 90.0)
           (-90.0 90.0)
           (-90.0 90.0)
  end
  begin
     id 19
     name lradius
     direction 1 -4.48977e-011 -8.71171e-027   
     length 3.11018   
     axis 180 -30 -90   XYZ
    dof rx
    limits (-10.0 170.0)
  end
  begin
     id 20
     name lwrist
     direction 1 -4.48912e-011 -1.03764e-026   
     length 1.55509   
     axis 9.09556e-015 90 90   XYZ
    dof ry
    limits (-180.0 0.0)
 end
  begin
     id 21 
     name lhand
     direction 1 -4.49072e-011 -2.07528e-026   
     length 0.743834   
     axis 1.3242e-014 90 90   XYZ
    dof rx rz
    limits (-90.0 90.0)
           (-45.0 45.0)
  end
  begin
     id 22 
     name lfingers
     direction 1 -4.48909e-011 -4.15056e-026   
     length 0.599698   
     axis 2.64841e-014 90 90   XYZ
    dof rx
    limits (0.0 90.0)
  end
  begin
     id 23
     name lthumb
     direction 0.707107 -6.35013e-011 0.707107   
     length 0.86105   
     axis -90 45 2.85299e-015   XYZ
    dof rx rz
    limits (-45.0 45.0)
           (-45.0 45.0)
  end
  begin
     id 24 
     name rclavicle
     direction -0.835208 0.500237 -0.228452   
     length 3.2716  
     axis 0 0 0   XYZ 
    dof ry rz
    limits (-10.0 20.0)
           (-20.0 0.0)
  end
  begin
     id 25 
     name rhumerus
     direction -1 -4.48978e-011 -5.1953e-028  
     length 4.55919   
     axis 180 30 90   XYZ
    dof rx ry rz
    limits (-90.0 60.0)
           (-90.0 90.0)
           (-90.0 90.0)
  end
  begin
     id 26 
     name rradius
     direction -1 -4.48961e-011 -5.99546e-027   
     length 3.22748   
     axis 180 30 90   XYZ
    dof rx
    limits (-10.0 170.0)
  end
  begin
     id 27 
     name rwrist
     direction -1 -4.48986e-011 -1.03764e-026   
     length 1.61374   
     axis 9.09556e-015 -90 -90   XYZ
    dof ry
    limits (-180.0 0.0)
  end
  begin
     id 28
     name rhand
     direction -1 -4.4899e-011 -2.07528e-026   
     length 0.700882   
     axis 1.3242e-014 -90 -90   XYZ
    dof rx rz
    limits (-90.0 90.0)
           (-45.0 45.0)
  end
  begin
     id 29
     name rfingers
     direction -1 -4.48991e-011 -4.15056e-026   
     length 0.565069   
     axis 2.64841e-014 -90 -90   XYZ
    dof rx
    limits (0.0 90.0)
  end
  begin
     id 30
     name rthumb
     direction -0.707107 -6.34804e-011 0.707107   
     length 0.811329   
     axis -90 -45 -2.85299e-015   XYZ
    dof rx rz
    limits (-45.0 45.0)
           (-45.0 45.0)
  end
:hierarchy
  begin
    root lhipjoint rhipjoint lowerback
    lhipjoint lfemur
    lfemur ltibia
    ltibia lfoot
    lfoot ltoes
    rhipjoint rfemur
    rfemur rtibia
    rtibia rfoot
    rfoot rtoes
    lowerback upperback
    upperback thorax
    thorax lowerneck lclavicle rclavicle
    lowerneck upperneck
    upperneck head
    lclavicle lhumerus
    lhumerus lradius
    lradius lwrist
    lwrist lhand lthumb
    lhand lfingers
    rclavicle rhumerus
    rhumerus rradius
    rradius rwrist
    rwrist rhand rthumb
    rhand rfingers
  end

#!OML:ASF F:\VICON\USERDATA\INSTALL\SteveWalk\SteveWalk.ASF
:FULLY-SPECIFIED
:DEGREES
126
root 0.334347 16.2556 -14.8866 17.5877 -1.37741 5.31009
lowerback -13.1911 0.283354 -7.76492
upperback -5.57206 1.38256 -2.48653
thorax 1.38265 0.772391 1.96042
lowerneck -6.98358 -0.759685 -0.335484
upperneck 7.55492 -1.07159 1.00481
head 3.70208 -0.495606 0.333464
rclavicle 1.20513e-014 -7.55382e-015
rhumerus -36.4401 -1.54146 -88.0945
rradius 51.4369
rwrist -22.4275
rhand -16.8277 -36.4401
rfingers 7.12502
rthumb 9.40158 -66.2104
lclavicle 1.20513e-014 -7.55382e-015
lhumerus -69.371 40.5652 30.6121
lradius 11.0342
lwrist -46.6029
lhand -17.0216 -15.0891
lfingers 7.12502
lthumb 9.21452 14.6895
rfemur -24.4129 -4.4077 13.7024
rtibia 72.3621
rfoot 5.93319 5.4642
rtoes -9.88008
lfemur -41.8396 -1.70004 -28.1238
ltibia 38.1109
lfoot -12.6667 -0.13169
ltoes -6.49822
127
root 0.343099 16.2868 -14.6861 17.7637 -1.30061 5.0301
lowerback -13.231 0.241281 -7.35587
upperback -5.71447 1.27087 -2.42754
thorax 1.27563 0.718305 1.77808
lowerneck -6.68476 -0.704144 -0.132179
upperneck 7.59731 -0.997862 0.769948
head 3.65432 -0.46409 0.224818
rclavicle -2.40825e-014 3.22031e-014
rhumerus -37.0351 -2.83056 -87.8901
rradius 48.8804
rwrist -20.9724
rhand -15.1398 -36.293
rfingers 7.12502
rthumb 11.03 -65.9832
lclavicle -2.40825e-014 3.22031e-014
lhumerus -66.6541 40.1802 34.1611
lradius 11.3945
lwrist -44.4536
lhand -16.9582 -14.5096
lfingers 7.12502
lthumb 9.27564 15.2663
rfemur -26.5048 -4.61679 14.2276
rtibia 73.65
rfoot 4.58048 4.30675
rtoes -9.52939
lfemur -41.0123 -1.51207 -27.9267
ltibia 37.7288
lfoot -13.2924 -0.0932635
ltoes -6.28491
128
root 0.352492 16.3313 -14.4789 17.911 -1.32644 4.63702
lowerback -13.3571 0.183495 -6.85493
upperback -5.72048 1.14065 -2.26698
thorax 1.35957 0.645262 1.65073
lowerneck -6.6387 -0.574573 0.0213134
upperneck 7.49142 -0.807433 0.406856
head 3.60415 -0.381444 0.0883335
rclavicle -1.36136e-014 2.98177e-014
rhumerus -37.4225 -3.724 -87.6835
rradius 46.3371
rwrist -19.8391
rhand -14.3942 -36.6197
rfingers 7.12502
rthumb 11.749 -66.2702
lclavicle -1.36136e-014 2.98177e-014
lhumerus -65.0804 40.7278 35.7802
lradius 11.4312
lwrist -43.6574
lhand -17.1225 -15.2579
lfingers 7.12502
lthumb 9.11717 14.525
rfemur -28.4593 -4.7691 14.843
rtibia 74.5523
rfoot 3.10603 3.30771
rtoes -9.74193
lfemur -40.1047 -1.29186 -27.5894
ltibia 37.309
lfoot -13.9308 -0.0157231
ltoes -6.12335
129
root 0.368125 16.3761 -14.2615 17.8597 -1.19283 4.38738
lowerback -13.4316 0.0557988 -6.39301
upperback -5.5478 0.927635 -2.1331
thorax 1.60772 0.523642 1.50552
lowerneck -6.82999 -0.445744 0.121513
upperneck 7.3833 -0.621967 0.140319
head 3.6019 -0.298253 -0.00778187
rclavicle 1.38093e-014 -1.74931e-014
rhumerus -37.7621 -4.29976 -87.6094
rradius 43.9571
rwrist -19.5241
rhand -15.2938 -35.1141
rfingers 7.12502
rthumb 10.8814 -64.8122
lclavicle 1.38093e-014 -1.74931e-014
lhumerus -63.2784 41.4142 37.5513
lradius 11.4099
lwrist -42.7559
lhand -17.5673 -16.1729
lfingers 7.12502
lthumb 8.68796 13.6283
rfemur -30.021 -5.12063 15.3052
rtibia 75.1159
rfoot 1.95271 2.67526
rtoes -9.80632
lfemur -38.8997 -1.26792 -27.3687
ltibia 36.8485
lfoot -14.5502 -0.0124087
ltoes -5.6035
130
root 0.38795 16.4057 -14.047 17.7991 -1.06716 4.13245
lowerback -13.5833 -0.0131735 -5.86028
upperback -5.41895 0.786562 -2.0512
thorax 1.84579 0.439148 1.27532
lowerneck -6.71516 -0.315144 0.26876
upperneck 7.28016 -0.449659 0.00185254
head 3.54259 -0.214871 -0.0698275
rclavicle -6.24308e-015 -1.03368e-014
rhumerus -38.2172 -5.12933 -87.472
rradius 41.4909
rwrist -19.3478
rhand -16.2884 -34.1203
rfingers 7.12502
rthumb 9.92188 -63.8665
lclavicle -6.24308e-015 -1.03368e-014
lhumerus -60.3985 41.1772 40.9639
lradius 11.6253
lwrist -40.7833
lhand -17.9395 -16.34
lfingers 7.12502
lthumb 8.32876 13.4758
rfemur -31.546 -5.35628 15.7624
rtibia 75.4494
rfoot 0.931918 2.27999
rtoes -9.50558
lfemur -37.71 -1.27614 -27.1494
ltibia 36.3838
lfoot -15.1194 0.091802
ltoes -5.49171
131
root 0.401258 16.4303 -13.8367 17.8735 -1.18407 3.92618
lowerback -13.7481 -0.0399904 -5.5483
upperback -5.50791 0.715229 -1.92402
thorax 1.84974 0.402421 1.22379
lowerneck -6.27666 -0.184135 0.205711
upperneck 7.23392 -0.261562 -0.057576
head 3.4412 -0.126106 -0.0678214
rclavicle 7.17799e-015 -7.55382e-015
rhumerus -38.869 -6.26757 -86.8764
rradius 38.7453
rwrist -17.9498
rhand -15.8545 -35.1568
rfingers 7.12502
rthumb 10.3405 -64.8826
lclavicle 7.17799e-015 -7.55382e-015
lhumerus -57.8429 40.694 44.1081
lradius 11.8577
lwrist -39.0985
lhand -18.0495 -16.2935
lfingers 7.12502
lthumb 8.22261 13.5265
rfemur -33.2588 -5.36124 16.161
rtibia 75.5888
rfoot -0.305411 2.02674
rtoes -8.89937
lfemur -36.7043 -1.08976 -27.0174
ltibia 35.9691
lfoot -15.7489 0.169319
ltoes -5.09136
132
root 0.40491 16.4545 -13.6254 17.8881 -1.29301 3.61308
lowerback -13.8102 -0.0820861 -5.29518
upperback -5.55602 0.622159 -1.70387
thorax 1.83995 0.356014 1.29828
lowerneck -6.14442 -0.107688 0.109081
upperneck 7.41088 -0.13969 -0.176004
head 3.47723 -0.0733181 -0.0836855
rclavicle 3.56881e-015 -2.22639e-014
rhumerus -39.5714 -7.44125 -86.0738
rradius 36.1559
rwrist -16.2499
rhand -15.2497 -35.3959
rfingers 7.12502
rthumb 10.9239 -65.0917
lclavicle 3.56881e-015 -2.22639e-014
lhumerus -54.7883 39.6355 48.0375
lradius 12.2468
lwrist -36.5829
lhand -18.0196 -15.7914
lfingers 7.12502
lthumb 8.25146 14.0275
rfemur -34.8607 -5.22967 16.7608
rtibia 75.507
rfoot -1.55983 1.60015
rtoes -8.005
lfemur -35.6539 -0.794339 -26.7298
ltibia 35.625
lfoot -16.5339 0.0416944
ltoes -4.02839
133
root 0.409585 16.4711 -13.4181 17.8191 -1.20878 3.31242
lowerback -13.7574 -0.135294 -4.9838
upperback -5.5084 0.504762 -1.5214
thorax 1.87189 0.294211 1.29658
lowerneck -6.22786 -0.0986475 0.131984
upperneck 7.63447 -0.113457 -0.363476
head 3.5716 -0.0676933 -0.148363
rclavicle 4.0844e-015 7.35503e-015
rhumerus -40.1553 -8.6865 -85.2732
rradius 33.6464
rwrist -15.0578
rhand -14.9831 -35.2862
rfingers 7.12502
rthumb 11.1811 -64.9682
lclavicle 4.0844e-015 7.35503e-015
lhumerus -50.7744 37.1586 53.4803
lradius 12.9265
lwrist -32.3905
lhand -18.206 -15.1826
lfingers 7.12502
lthumb 8.07148 14.6433
rfemur -36.2972 -5.22822 17.3779
rtibia 75.2343
rfoot -2.89394 1.15702
rtoes -7.23126
lfemur -34.5667 -0.571952 -26.4251
ltibia 35.3406
lfoot -17.407 -0.193918
ltoes -3.26543
134
root 0.419877 16.4833 -13.2108 17.7584 -1.05285 3.17753
lowerback -13.7427 -0.209357 -4.76703
upperback -5.50715 0.374724 -1.4016
thorax 1.87479 0.228023 1.28048
lowerneck -6.0467 -0.114853 0.188235
upperneck 7.74513 -0.12311 -0.560587
head 3.57488 -0.079099 -0.223443
rclavicle -8.23093e-016 9.93923e-015
rhumerus -40.801 -10.1194 -84.2161
rradius 30.9196
rwrist -13.6229
rhand -14.5176 -36.228
rfingers 7.12502
rthumb 11.63 -65.8853
lclavicle -8.23093e-016 9.93923e-015
lhumerus -47.3123 34.4108 58.2074
lradius 13.558
lwrist -28.537
lhand -18.4707 -15.2179
lfingers 7.12502
lthumb 7.81603 14.6176
rfemur -37.6441 -5.41909 17.7933
rtibia 74.7702
rfoot -4.37967 0.955611
rtoes -8.18102
lfemur -33.5417 -0.421458 -26.3333
ltibia 35.1171
lfoot -17.7863 -0.259256
ltoes -4.67562
135
root 0.428608 16.4879 -13.0038 17.6045 -1.01115 3.00581
lowerback -13.5187 -0.255636 -4.56391
upperback -5.55715 0.267588 -1.25133
thorax 1.70936 0.177649 1.30641
lowerneck -5.92368 -0.0684898 0.0934085
upperneck 7.9483 -0.0524975 -0.544397
head 3.62218 -0.0464139 -0.198162
rclavicle -1.05216e-014 1.27222e-014
rhumerus -41.589 -11.7934 -82.7527
rradius 27.9991
rwrist -11.5701
rhand -14.0221 -36.4257
rfingers 7.12502
rthumb 12.1078 -66.0554
lclavicle -1.05216e-014 1.27222e-014
lhumerus -44.6414 32.074 61.8165
lradius 14.1517
lwrist -25.1455
lhand -18.6216 -15.3165
lfingers 7.12502
lthumb 7.67043 14.5244
rfemur -38.8484 -5.43083 18.2403
rtibia 74.1179
rfoot -5.74146 0.72956
rtoes -11.8025
lfemur -32.4692 -0.239594 -26.2106
ltibia 34.96
lfoot -18.281 -0.231872
ltoes -5.15663
